<svg version="1.1" xmlns="http://www.w3.org/2000/svg" viewBox="0 0 1051.7247791554846 381.29047883501926" width="1051.7247791554846" height="381.29047883501926">
  <!-- svg-source:excalidraw -->
  
  <defs>
    <style class="style-fonts">
      @font-face {
        font-family: "Virgil";
        src: url("https://excalidraw.com/Virgil.woff2");
      }
      @font-face {
        font-family: "Cascadia";
        src: url("https://excalidraw.com/Cascadia.woff2");
      }
      @font-face {
        font-family: "Assistant";
        src: url("https://excalidraw.com/Assistant-Regular.woff2");
      }
    </style>
    
  </defs>
  <rect x="0" y="0" width="1051.7247791554846" height="381.29047883501926" fill="#ffffff"></rect><g stroke-linecap="round" transform="translate(576.124773051969 10) rotate(0 232.8000030517578 177.20001220703125)"><path d="M32 0 C191.19 0.86, 349.3 -0.47, 433.6 0 M32 0 C163.47 1.71, 294.77 1.24, 433.6 0 M433.6 0 C453.63 -1.48, 467.1 8.71, 465.6 32 M433.6 0 C453.14 -0.88, 464.66 8.48, 465.6 32 M465.6 32 C466.88 104.07, 467.76 176.19, 465.6 322.4 M465.6 32 C466.76 134.16, 466.58 235.98, 465.6 322.4 M465.6 322.4 C465.99 343.43, 455.03 353.49, 433.6 354.4 M465.6 322.4 C467.83 345.8, 455.62 352.91, 433.6 354.4 M433.6 354.4 C324.76 353.78, 214.9 353.44, 32 354.4 M433.6 354.4 C351.41 351.8, 268.71 352.09, 32 354.4 M32 354.4 C11.04 352.74, 1.02 341.77, 0 322.4 M32 354.4 C9.49 355.33, 0.36 343.84, 0 322.4 M0 322.4 C-2.58 250.04, -2.33 179.01, 0 32 M0 322.4 C0.32 243.35, 1.16 164.7, 0 32 M0 32 C1.55 9.46, 11.41 -1.92, 32 0 M0 32 C1.96 8.64, 11 -1.31, 32 0" stroke="#1e1e1e" stroke-width="2" fill="none"></path></g><g stroke-linecap="round" transform="translate(10 16.890454420956758) rotate(0 232.8000030517578 177.20001220703125)"><path d="M32 0 C162.79 2.03, 294.59 2.05, 433.6 0 M32 0 C144.38 0.83, 257.22 0.51, 433.6 0 M433.6 0 C455.9 1.57, 464.67 12.56, 465.6 32 M433.6 0 C457.22 -0.35, 467.82 12.27, 465.6 32 M465.6 32 C467.35 100.05, 468.37 166.91, 465.6 322.4 M465.6 32 C465.39 130.96, 465.05 229.2, 465.6 322.4 M465.6 322.4 C466.25 342.48, 454.91 355.2, 433.6 354.4 M465.6 322.4 C463.63 342.32, 453.59 354.39, 433.6 354.4 M433.6 354.4 C323.21 352.12, 210.27 352.45, 32 354.4 M433.6 354.4 C274.88 354.46, 115.85 354.72, 32 354.4 M32 354.4 C10.98 354.83, -1.05 343.3, 0 322.4 M32 354.4 C10.58 355.78, -0.12 345.14, 0 322.4 M0 322.4 C-2.81 216.02, -1.85 109.43, 0 32 M0 322.4 C-0.78 223.4, -0.07 123.65, 0 32 M0 32 C-0.45 11.92, 9.82 1.71, 32 0 M0 32 C-0.28 9.83, 12.71 2.27, 32 0" stroke="#1e1e1e" stroke-width="2" fill="none"></path></g><g transform="translate(81.61846583233421 37.3961299162288) rotate(0 168.75 21.600000000000023)"><text x="0" y="34.762499999999996" font-family="Cascadia, Segoe UI Emoji" font-size="36px" fill="#1e1e1e" text-anchor="start" style="white-space: pre;" direction="ltr" dominant-baseline="alphabetic">Meine Done-Lists</text></g><g transform="translate(664.8092891789827 28.28140182924244) rotate(0 137.109375 21.600000000000023)"><text x="0" y="34.762499999999996" font-family="Cascadia, Segoe UI Emoji" font-size="36px" fill="#1e1e1e" text-anchor="start" style="white-space: pre;" direction="ltr" dominant-baseline="alphabetic">My Done-List1</text></g><g stroke-linecap="round" transform="translate(629.2563262404764 91.70467026906022) rotate(0 109.20001220703124 122.79998779296875)"><path d="M32 0 C75.36 -2.19, 119.4 0.97, 186.4 0 M32 0 C66.88 -0.82, 100.5 -0.71, 186.4 0 M186.4 0 C209.23 -1.96, 216.84 9.9, 218.4 32 M186.4 0 C206.79 -2.19, 217.17 11.62, 218.4 32 M218.4 32 C220.54 86.72, 219.87 140.12, 218.4 213.6 M218.4 32 C218.11 85.98, 218.57 138.62, 218.4 213.6 M218.4 213.6 C218.5 234.02, 209.68 247.39, 186.4 245.6 M218.4 213.6 C219.09 233.44, 207.1 247.69, 186.4 245.6 M186.4 245.6 C140.46 243.25, 92.74 242.93, 32 245.6 M186.4 245.6 C155.87 244.38, 124.12 243.72, 32 245.6 M32 245.6 C11.69 243.64, -1.02 235.74, 0 213.6 M32 245.6 C11.03 245.71, -1.22 236.44, 0 213.6 M0 213.6 C0.19 141.27, 0.82 68.59, 0 32 M0 213.6 C1.28 159.4, 1.12 105.6, 0 32 M0 32 C0.74 8.75, 12.37 -1.76, 32 0 M0 32 C0.33 9.35, 9.87 -1.87, 32 0" stroke="#1e1e1e" stroke-width="2" fill="none"></path></g><g stroke-linecap="round" transform="translate(51.1646174884379 95.93582255288038) rotate(0 109.20001220703125 122.79998779296875)"><path d="M32 0 C66.48 0.23, 103.33 -2.36, 186.4 0 M32 0 C75.48 -0.86, 117.76 -0.02, 186.4 0 M186.4 0 C206.81 1.9, 220.39 10.37, 218.4 32 M186.4 0 C209.96 1.61, 216.89 12.56, 218.4 32 M218.4 32 C219.66 93.97, 219.15 159.27, 218.4 213.6 M218.4 32 C217.01 88.64, 218.13 144.88, 218.4 213.6 M218.4 213.6 C218.37 235.73, 206.02 244.37, 186.4 245.6 M218.4 213.6 C217.05 234.93, 207.21 244.35, 186.4 245.6 M186.4 245.6 C150.84 244.51, 119.47 243.61, 32 245.6 M186.4 245.6 C140.28 246.52, 94.47 246.09, 32 245.6 M32 245.6 C9.61 245.16, -0.07 236.14, 0 213.6 M32 245.6 C10.54 247, 1.52 236.61, 0 213.6 M0 213.6 C1.12 141.47, 2.3 70.67, 0 32 M0 213.6 C1.66 140.79, 1.37 70.51, 0 32 M0 32 C-0.85 12.38, 10.42 -0.72, 32 0 M0 32 C2.04 12.93, 9.05 -1.52, 32 0" stroke="#1e1e1e" stroke-width="2" fill="none"></path></g><g stroke-linecap="round" transform="translate(646.0563750686014 114.10475571827897) rotate(0 79.5999755859375 19.999984741210938)"><path d="M10 0 C56.62 0.59, 107.99 -1.47, 149.2 0 M10 0 C55.17 -1.07, 101.3 0.33, 149.2 0 M149.2 0 C153.91 -1.56, 158.44 2.51, 159.2 10 M149.2 0 C153.68 -1.23, 160.15 3.21, 159.2 10 M159.2 10 C160.46 17.51, 160.34 22.89, 159.2 30 M159.2 10 C159.9 16.17, 159.15 21.99, 159.2 30 M159.2 30 C158.29 38.61, 157.66 40.6, 149.2 40 M159.2 30 C157.71 36.03, 157.96 39.94, 149.2 40 M149.2 40 C99.78 38.08, 51.62 38.01, 10 40 M149.2 40 C96.24 41.16, 42.8 41.49, 10 40 M10 40 C1.37 38.98, 0.81 36.98, 0 30 M10 40 C3.44 38.78, 1.5 38.92, 0 30 M0 30 C0.05 24.96, -0.33 21, 0 10 M0 30 C-0.4 25.16, -0.5 19.13, 0 10 M0 10 C-1.92 5.03, 1.57 0.29, 10 0 M0 10 C-1.31 2.53, 1.47 2.19, 10 0" stroke="#1e1e1e" stroke-width="2" fill="none"></path></g><g stroke-linecap="round" transform="translate(67.96466631656301 118.33590800209913) rotate(0 79.5999755859375 19.999984741210938)"><path d="M10 0 C41.59 0.56, 69.67 0.49, 149.2 0 M10 0 C51.96 -0.69, 94.82 -1.63, 149.2 0 M149.2 0 C157.76 1.99, 158.9 5.27, 159.2 10 M149.2 0 C157.47 -1.51, 161.09 4.49, 159.2 10 M159.2 10 C157.55 16.74, 159.23 22.15, 159.2 30 M159.2 10 C159.17 15.67, 158.66 20.67, 159.2 30 M159.2 30 C159.99 34.95, 154.63 38.83, 149.2 40 M159.2 30 C159.19 36.14, 154.62 38.23, 149.2 40 M149.2 40 C95.3 41.12, 40.86 39.17, 10 40 M149.2 40 C104.91 40.05, 59.54 39.37, 10 40 M10 40 C2.9 39.93, 1.2 36.56, 0 30 M10 40 C4.74 41.52, 1.68 38.82, 0 30 M0 30 C-0.59 26.45, 0.13 23.17, 0 10 M0 30 C-0.96 25.53, 0.62 21.09, 0 10 M0 10 C1.71 3.09, 2.61 1.78, 10 0 M0 10 C2.27 1.71, 1.81 2.19, 10 0" stroke="#1e1e1e" stroke-width="2" fill="none"></path></g><g stroke-linecap="round" transform="translate(647.2563872756326 172.90474351124772) rotate(0 79.5999755859375 19.999984741210938)"><path d="M10 0 C57.67 2.68, 102.74 1.72, 149.2 0 M10 0 C50.82 0.45, 93.69 0.21, 149.2 0 M149.2 0 C154.31 -0.76, 158.38 1.43, 159.2 10 M149.2 0 C154.64 0.95, 159.08 3.91, 159.2 10 M159.2 10 C160.38 17.66, 159.25 23.12, 159.2 30 M159.2 10 C159.34 16.88, 159.2 23.61, 159.2 30 M159.2 30 C161.14 38.46, 156.47 38.7, 149.2 40 M159.2 30 C158.56 38.76, 155.8 41, 149.2 40 M149.2 40 C112.41 36.98, 77.43 40.48, 10 40 M149.2 40 C117.08 38.94, 85.11 38.78, 10 40 M10 40 C2.31 40.81, 0.31 36.76, 0 30 M10 40 C2.11 41.5, 2.26 34.89, 0 30 M0 30 C-0.46 24.49, 0.03 19.45, 0 10 M0 30 C0.59 24.42, 0.18 19.1, 0 10 M0 10 C1.7 1.57, 3.62 -1.14, 10 0 M0 10 C-0.8 1.47, 5.52 -1.47, 10 0" stroke="#1e1e1e" stroke-width="2" fill="none"></path></g><g stroke-linecap="round" transform="translate(69.16467852359426 177.13589579506788) rotate(0 79.5999755859375 19.999984741210938)"><path d="M10 0 C57.53 -2.31, 105.4 -0.6, 149.2 0 M10 0 C59.47 0.86, 107.51 1.02, 149.2 0 M149.2 0 C157.86 -0.3, 161.13 4.73, 159.2 10 M149.2 0 C154.36 1.89, 160.36 3.28, 159.2 10 M159.2 10 C160.12 16, 159.58 21.27, 159.2 30 M159.2 10 C159.37 16.23, 159.03 24.1, 159.2 30 M159.2 30 C157.49 35.43, 154.7 39.99, 149.2 40 M159.2 30 C158.68 35.42, 154.09 41.95, 149.2 40 M149.2 40 C115.95 38.49, 78.84 40.2, 10 40 M149.2 40 C105.11 41.11, 60.18 40.68, 10 40 M10 40 C3.26 41.2, -0.11 37.89, 0 30 M10 40 C4.85 41.68, 2.16 34.79, 0 30 M0 30 C0.85 24.28, 1.95 16.58, 0 10 M0 30 C-0.24 24.57, -0.44 18.75, 0 10 M0 10 C-0.25 2.61, 5.11 1.97, 10 0 M0 10 C-1.62 1.81, 5.52 -0.27, 10 0" stroke="#1e1e1e" stroke-width="2" fill="none"></path></g><g stroke-linecap="round" transform="translate(646.8564238967264 228.50478013234147) rotate(0 79.5999755859375 19.999984741210938)"><path d="M10 0 C52.85 -1.9, 93.16 -0.42, 149.2 0 M10 0 C55.23 1.65, 100.96 0.13, 149.2 0 M149.2 0 C155.1 -0.82, 157.29 2.27, 159.2 10 M149.2 0 C156.82 -0.12, 159.78 4, 159.2 10 M159.2 10 C160.4 17.56, 159.29 26.39, 159.2 30 M159.2 10 C159.17 15.52, 158.86 21.92, 159.2 30 M159.2 30 C160.99 37.27, 154.57 39.44, 149.2 40 M159.2 30 C161.29 36.6, 156.87 38.87, 149.2 40 M149.2 40 C105.88 36.73, 67.98 37.33, 10 40 M149.2 40 C96.85 40.77, 45.18 39.75, 10 40 M10 40 C4.14 40.31, 0.1 35.6, 0 30 M10 40 C4.84 42.26, -1.78 35.61, 0 30 M0 30 C-0.42 25.12, -0.38 19.38, 0 10 M0 30 C-0.51 22.5, -0.86 15.12, 0 10 M0 10 C-1.76 3.62, 2.19 -0.69, 10 0 M0 10 C-1.87 5.52, 1.87 1.06, 10 0" stroke="#1e1e1e" stroke-width="2" fill="none"></path></g><g stroke-linecap="round" transform="translate(68.76471514468801 232.73593241616163) rotate(0 79.5999755859375 19.999984741210938)"><path d="M10 0 C40.43 -0.2, 74.24 1.32, 149.2 0 M10 0 C64.24 -1.14, 117.86 0.32, 149.2 0 M149.2 0 C155.57 1.93, 160.6 2.02, 159.2 10 M149.2 0 C157.76 1.16, 159.14 3.29, 159.2 10 M159.2 10 C159.07 17.55, 158.38 25.46, 159.2 30 M159.2 10 C158.55 14.41, 159.57 17.99, 159.2 30 M159.2 30 C157.97 35.5, 155.86 39.54, 149.2 40 M159.2 30 C157.95 34.89, 157.81 38.91, 149.2 40 M149.2 40 C114.13 41.29, 82.05 41.69, 10 40 M149.2 40 C108.69 39.69, 67.54 40.18, 10 40 M10 40 C4.54 39.89, 1.22 37.98, 0 30 M10 40 C5.01 42.16, -1.87 36.47, 0 30 M0 30 C0.17 26.27, -1.7 18.76, 0 10 M0 30 C0.82 23.45, 1.05 17.63, 0 10 M0 10 C-0.72 5.11, 5.3 -1.41, 10 0 M0 10 C-1.52 5.52, 3.06 -1.01, 10 0" stroke="#1e1e1e" stroke-width="2" fill="none"></path></g><g stroke-linecap="round" transform="translate(645.6564116896951 281.7047923393727) rotate(0 79.5999755859375 19.999984741210938)"><path d="M10 0 C39.17 -0.48, 71.34 -0.49, 149.2 0 M10 0 C40.61 0.05, 68.94 0.65, 149.2 0 M149.2 0 C155.04 -1.91, 158.13 4.16, 159.2 10 M149.2 0 C155.74 0.58, 159.86 5.26, 159.2 10 M159.2 10 C159.18 17.17, 160.34 23.88, 159.2 30 M159.2 10 C159.29 16.74, 160.21 25.29, 159.2 30 M159.2 30 C159.8 35.37, 155.31 41.82, 149.2 40 M159.2 30 C159.14 37.67, 154.73 39.94, 149.2 40 M149.2 40 C116.55 40.25, 86.46 40.07, 10 40 M149.2 40 C110.31 37.87, 69.88 39.25, 10 40 M10 40 C3.65 40.1, -1.06 37.97, 0 30 M10 40 C5.59 38.22, -1.05 35.28, 0 30 M0 30 C-0.03 23.66, -0.97 19.95, 0 10 M0 30 C0.22 24.04, 0.7 19.11, 0 10 M0 10 C0.29 2.19, 2.64 -1.62, 10 0 M0 10 C2.19 1.87, 4.39 2.22, 10 0" stroke="#1e1e1e" stroke-width="2" fill="none"></path></g><g stroke-linecap="round" transform="translate(67.56470293765676 285.9359446231929) rotate(0 79.5999755859375 19.999984741210938)"><path d="M10 0 C57.67 1.2, 107.33 2.85, 149.2 0 M10 0 C50.54 -0.14, 93.01 -1.24, 149.2 0 M149.2 0 C157.8 1.4, 157.89 4.98, 159.2 10 M149.2 0 C157.02 -0.06, 159.16 4.83, 159.2 10 M159.2 10 C159.53 13.69, 160.13 17.13, 159.2 30 M159.2 10 C159.25 16.16, 158.41 20.91, 159.2 30 M159.2 30 C158.03 36.66, 155.41 38.91, 149.2 40 M159.2 30 C157.43 38.61, 154.78 38.69, 149.2 40 M149.2 40 C109.92 39.58, 71.07 38.97, 10 40 M149.2 40 C97.96 40.08, 47.74 40.9, 10 40 M10 40 C3.23 41.22, 1.32 38.12, 0 30 M10 40 C5.49 38.13, -0.2 36.26, 0 30 M0 30 C1.83 22.85, -0.03 19.34, 0 10 M0 30 C-0.38 26.76, -0.08 21.45, 0 10 M0 10 C1.78 5.3, 1.92 -1.32, 10 0 M0 10 C2.19 3.06, 2.32 1.96, 10 0" stroke="#1e1e1e" stroke-width="2" fill="none"></path></g><g stroke-linecap="round" transform="translate(822.8563628615701 99.70473130421647) rotate(0 4.79998779296875 115.20001220703125)"><path d="M2.4 0 C4.04 0.01, 5.61 -0.19, 7.2 0 M2.4 0 C3.41 -0.11, 4.61 -0.07, 7.2 0 M7.2 0 C7.85 -0.53, 10.01 0.75, 9.6 2.4 M7.2 0 C9.09 0.33, 10.57 1.49, 9.6 2.4 M9.6 2.4 C10.11 81.9, 9.9 161.03, 9.6 228 M9.6 2.4 C9.26 74.87, 9.84 146.63, 9.6 228 M9.6 228 C8.95 229.32, 9.71 230.37, 7.2 230.4 M9.6 228 C10.1 229.03, 8.77 229.49, 7.2 230.4 M7.2 230.4 C6.4 230.21, 5.39 230.34, 2.4 230.4 M7.2 230.4 C5.55 230.35, 4.19 230.43, 2.4 230.4 M2.4 230.4 C0.85 229.87, 0.65 230.58, 0 228 M2.4 230.4 C-0.09 229.87, -0.69 229.58, 0 228 M0 228 C0.04 166.45, 1.01 105.35, 0 2.4 M0 228 C0.17 143.15, 0.21 57.64, 0 2.4 M0 2.4 C-0.57 0.45, -0.01 0.95, 2.4 0 M0 2.4 C-0.73 1.33, 1.91 0.17, 2.4 0" stroke="#1e1e1e" stroke-width="2" fill="none"></path></g><g stroke-linecap="round" transform="translate(824.0563750686014 100.90468247609147) rotate(0 4.79998779296875 24.4000244140625)"><path d="M2.4 0 C3.87 -0.3, 5.08 0.29, 7.2 0 C6.39 1.46, 12 -0.45, 9.6 2.4 C11.76 10.63, 7.4 21.77, 9.6 46.4 C8.22 50.13, 8.18 50.34, 7.2 48.8 C5.36 48.36, 4.47 48.28, 2.4 48.8 C-0.24 46.92, 0.32 50.35, 0 46.4 C1.65 33.46, -0.97 22.77, 0 2.4 C-1.39 0.26, 1.44 -0.36, 2.4 0" stroke="none" stroke-width="0" fill="#1e1e1e"></path><path d="M2.4 0 C4.21 0.07, 5.83 -0.16, 7.2 0 M2.4 0 C3.39 -0.02, 4.52 -0.09, 7.2 0 M7.2 0 C8.27 0.41, 9.55 1.05, 9.6 2.4 M7.2 0 C9.13 0.97, 10.29 1.38, 9.6 2.4 M9.6 2.4 C10.1 17.71, 10.19 33.75, 9.6 46.4 M9.6 2.4 C10.1 15.38, 9.76 27.14, 9.6 46.4 M9.6 46.4 C9.32 48.91, 8.77 49.24, 7.2 48.8 M9.6 46.4 C9.03 47.97, 7.89 47.72, 7.2 48.8 M7.2 48.8 C6.06 48.99, 5.2 48.86, 2.4 48.8 M7.2 48.8 C6.1 48.83, 5.13 48.78, 2.4 48.8 M2.4 48.8 C0.27 49.45, 0.98 47.23, 0 46.4 M2.4 48.8 C0.27 48.11, -0.02 47.67, 0 46.4 M0 46.4 C-0.51 35.07, -0.49 22.65, 0 2.4 M0 46.4 C0.34 35.42, -0.01 25.04, 0 2.4 M0 2.4 C-0.35 -0.01, 1.75 -0.64, 2.4 0 M0 2.4 C0.53 1.91, 0.97 -0.71, 2.4 0" stroke="#1e1e1e" stroke-width="2" fill="none"></path></g><g transform="translate(692.3035215359931 115.48683294584202) rotate(0 32.8125 16.799999999999955)"><text x="0" y="27.0375" font-family="Cascadia, Segoe UI Emoji" font-size="28px" fill="#1e1e1e" text-anchor="start" style="white-space: pre;" direction="ltr" dominant-baseline="alphabetic">Code</text></g><g transform="translate(90.21040322066517 124.51798522966214) rotate(0 58.59375 12)"><text x="0" y="19.3125" font-family="Cascadia, Segoe UI Emoji" font-size="20px" fill="#1e1e1e" text-anchor="start" style="white-space: pre;" direction="ltr" dominant-baseline="alphabetic">Done-List1</text></g><g transform="translate(86.70963180026752 184.7709901501819) rotate(0 58.59375 12)"><text x="0" y="19.3125" font-family="Cascadia, Segoe UI Emoji" font-size="20px" fill="#1e1e1e" text-anchor="start" style="white-space: pre;" direction="ltr" dominant-baseline="alphabetic">Done-List2</text></g><g transform="translate(89.20918415875519 239.77367599925537) rotate(0 58.59375 12)"><text x="0" y="19.3125" font-family="Cascadia, Segoe UI Emoji" font-size="20px" fill="#1e1e1e" text-anchor="start" style="white-space: pre;" direction="ltr" dominant-baseline="alphabetic">Done-List3</text></g><g transform="translate(88.70854601586313 295.52642377964276) rotate(0 58.59375 12)"><text x="0" y="19.3125" font-family="Cascadia, Segoe UI Emoji" font-size="20px" fill="#1e1e1e" text-anchor="start" style="white-space: pre;" direction="ltr" dominant-baseline="alphabetic">Done-List4</text></g><g transform="translate(663.2593904337524 178.25549857940996) rotate(0 64.453125 12)"><text x="0" y="19.3125" font-family="Cascadia, Segoe UI Emoji" font-size="20px" fill="#1e1e1e" text-anchor="start" style="white-space: pre;" direction="ltr" dominant-baseline="alphabetic">Story board</text></g><g transform="translate(679.9527381388408 236.2239939940746) rotate(0 46.875 12)"><text x="0" y="19.3125" font-family="Cascadia, Segoe UI Emoji" font-size="20px" fill="#1e1e1e" text-anchor="start" style="white-space: pre;" direction="ltr" dominant-baseline="alphabetic">Diagramm</text></g><g transform="translate(688.8372085578097 283.81479894885956) rotate(0 32.8125 16.799999999999955)"><text x="0" y="27.0375" font-family="Cascadia, Segoe UI Emoji" font-size="28px" fill="#1e1e1e" text-anchor="start" style="white-space: pre;" direction="ltr" dominant-baseline="alphabetic">Doku</text></g><g stroke-linecap="round" transform="translate(322.22926913328786 252.52157950521928) rotate(0 68.06763967661061 17)"><path d="M8.5 0 C51.39 1.63, 91.42 1.96, 127.64 0 M8.5 0 C56.79 -1.81, 104.51 -0.65, 127.64 0 M127.64 0 C133.25 -0.03, 137.44 1.19, 136.14 8.5 M127.64 0 C134.21 0.04, 136.42 2.07, 136.14 8.5 M136.14 8.5 C136.56 13.26, 135.98 20.83, 136.14 25.5 M136.14 8.5 C136.03 11.95, 135.57 15.13, 136.14 25.5 M136.14 25.5 C137.83 30.22, 132.16 33.64, 127.64 34 M136.14 25.5 C138.33 29.72, 133.26 34.52, 127.64 34 M127.64 34 C90.08 35.19, 50.84 34.33, 8.5 34 M127.64 34 C92.94 34.6, 57.76 34.87, 8.5 34 M8.5 34 C1.2 33.83, -0.36 30.56, 0 25.5 M8.5 34 C3.78 34.13, 2.2 29.15, 0 25.5 M0 25.5 C-0.39 21.42, -0.73 16.66, 0 8.5 M0 25.5 C0.9 20.01, -0.5 16.53, 0 8.5 M0 8.5 C-0.23 1.96, 4.53 -1.26, 8.5 0 M0 8.5 C-0.36 2.51, 3.14 0.95, 8.5 0" stroke="#1e1e1e" stroke-width="2" fill="none"></path></g><g transform="translate(349.28128380989847 257.5215795052193) rotate(0 41.015625 12)"><text x="41.015625" y="19.3125" font-family="Cascadia, Segoe UI Emoji" font-size="20px" fill="#1e1e1e" text-anchor="middle" style="white-space: pre;" direction="ltr" dominant-baseline="alphabetic">Löschen</text></g><g stroke-linecap="round" transform="translate(323.5733384652797 293.21105567220116) rotate(0 68.06763967661061 17)"><path d="M8.5 0 C42.67 0.96, 80.68 -1.23, 127.64 0 M8.5 0 C56.57 1.28, 102.97 0.76, 127.64 0 M127.64 0 C134.6 -1.65, 136.93 2.87, 136.14 8.5 M127.64 0 C133.59 -0.76, 137.12 1.02, 136.14 8.5 M136.14 8.5 C136.17 14.07, 134.73 17.25, 136.14 25.5 M136.14 8.5 C135.67 11.95, 136.85 16.31, 136.14 25.5 M136.14 25.5 C134.99 30.8, 135.21 32.74, 127.64 34 M136.14 25.5 C136.09 31.69, 133.71 33.83, 127.64 34 M127.64 34 C83.18 33.82, 40.76 35.46, 8.5 34 M127.64 34 C93.26 35.72, 56.61 34.7, 8.5 34 M8.5 34 C2.48 33.39, 0.82 31.28, 0 25.5 M8.5 34 C5.03 31.98, 0.06 31.31, 0 25.5 M0 25.5 C-0.68 23.47, -0.17 17.92, 0 8.5 M0 25.5 C-0.73 19.7, -0.27 11.91, 0 8.5 M0 8.5 C1.7 1.58, 2.52 -0.28, 8.5 0 M0 8.5 C0.31 3.78, 5.12 -2.23, 8.5 0" stroke="#1e1e1e" stroke-width="2" fill="none"></path></g><g transform="translate(338.9066031418903 298.21105567220116) rotate(0 52.734375 12)"><text x="52.734375" y="19.3125" font-family="Cascadia, Segoe UI Emoji" font-size="20px" fill="#1e1e1e" text-anchor="middle" style="white-space: pre;" direction="ltr" dominant-baseline="alphabetic">Erstellen</text></g><g stroke-linecap="round" transform="translate(885.9602223486224 293.9832543325231) rotate(0 68.06763967661061 24.5)"><path d="M12.25 0 C37.69 -1.13, 58.59 0.07, 123.89 0 M12.25 0 C41.57 0.54, 70.31 0.88, 123.89 0 M123.89 0 C133.73 1.2, 137.14 5.16, 136.14 12.25 M123.89 0 C131.91 -0.03, 137.32 3.48, 136.14 12.25 M136.14 12.25 C136.28 20.16, 138.13 31.68, 136.14 36.75 M136.14 12.25 C136.89 20.31, 136.41 27.92, 136.14 36.75 M136.14 36.75 C136.08 43.33, 130.17 47.09, 123.89 49 M136.14 36.75 C133.89 46.74, 130.49 50.61, 123.89 49 M123.89 49 C93.31 46.11, 59.66 48.89, 12.25 49 M123.89 49 C89.3 49.39, 52.63 47.95, 12.25 49 M12.25 49 C2.88 48.96, -0.58 44.49, 0 36.75 M12.25 49 C3.98 48.56, -1.18 47.06, 0 36.75 M0 36.75 C0.55 28.7, 1.51 22.73, 0 12.25 M0 36.75 C-0.67 30, -0.5 21.81, 0 12.25 M0 12.25 C1.93 4.38, 2.85 0.42, 12.25 0 M0 12.25 C1.54 3.52, 3.8 -1.16, 12.25 0" stroke="#1e1e1e" stroke-width="2" fill="none"></path></g><g transform="translate(911.8403620252332 299.28325433252326) rotate(0 42.1875 19.200000000000045)"><text x="42.1875" y="15.45" font-family="Cascadia, Segoe UI Emoji" font-size="16px" fill="#1e1e1e" text-anchor="middle" style="white-space: pre;" direction="ltr" dominant-baseline="alphabetic">Aufgabe </text><text x="42.1875" y="34.65" font-family="Cascadia, Segoe UI Emoji" font-size="16px" fill="#1e1e1e" text-anchor="middle" style="white-space: pre;" direction="ltr" dominant-baseline="alphabetic">erstellen</text></g></svg>