<svg version="1.1" xmlns="http://www.w3.org/2000/svg" viewBox="0 0 2768.5914421654356 923.2705665097894" width="2768.5914421654356" height="923.2705665097894">
  <!-- svg-source:excalidraw -->
  
  <defs>
    <style class="style-fonts">
      @font-face {
        font-family: "Virgil";
        src: url("https://excalidraw.com/Virgil.woff2");
      }
      @font-face {
        font-family: "Cascadia";
        src: url("https://excalidraw.com/Cascadia.woff2");
      }
      @font-face {
        font-family: "Assistant";
        src: url("https://excalidraw.com/Assistant-Regular.woff2");
      }
    </style>
    
  </defs>
  <rect x="0" y="0" width="2768.5914421654356" height="923.2705665097894" fill="#ffffff"></rect><g stroke-linecap="round" transform="translate(1517.729998617514 423.0600254911714) rotate(0 232.8000030517578 177.20001220703125)"><path d="M32 0 C183.01 3.06, 334.69 1.9, 433.6 0 M32 0 C118.58 -0.27, 204.2 -0.07, 433.6 0 M433.6 0 C454.03 0.82, 465.78 9.27, 465.6 32 M433.6 0 C455.76 1.21, 466.49 9.01, 465.6 32 M465.6 32 C465.25 119.89, 464.16 211.05, 465.6 322.4 M465.6 32 C465.46 105.2, 466.42 179.4, 465.6 322.4 M465.6 322.4 C464.77 344.59, 454.42 354.46, 433.6 354.4 M465.6 322.4 C465.89 345.27, 456.02 352.95, 433.6 354.4 M433.6 354.4 C319.58 356.31, 208.02 356.64, 32 354.4 M433.6 354.4 C316.47 355.46, 198.79 355.99, 32 354.4 M32 354.4 C11.64 354.31, 1.41 344.28, 0 322.4 M32 354.4 C9.43 355.22, 0.03 344.29, 0 322.4 M0 322.4 C-0.31 225, -1.04 127.32, 0 32 M0 322.4 C-2.04 236.87, -2.2 151.42, 0 32 M0 32 C0.33 11.39, 11.8 1.98, 32 0 M0 32 C-0.96 8.82, 10.19 -1.78, 32 0" stroke="#1e1e1e" stroke-width="2" fill="none"></path></g><g stroke-linecap="round" transform="translate(452.5984367698877 79.54515677024307) rotate(0 232.8000030517578 177.20001220703125)"><path d="M32 0 C162.56 1.48, 295.49 1.57, 433.6 0 M32 0 C156.86 -1.87, 281.84 -1.37, 433.6 0 M433.6 0 C453.99 -1.17, 463.69 11.81, 465.6 32 M433.6 0 C456.24 0.55, 465.68 10.42, 465.6 32 M465.6 32 C467.9 133.28, 467.93 232.84, 465.6 322.4 M465.6 32 C465.55 102.95, 466.03 173.26, 465.6 322.4 M465.6 322.4 C465.57 344.47, 453.11 355.72, 433.6 354.4 M465.6 322.4 C464.79 344.55, 453.9 354.27, 433.6 354.4 M433.6 354.4 C338.37 356.93, 244.14 356.71, 32 354.4 M433.6 354.4 C352.28 354.05, 271.68 354.11, 32 354.4 M32 354.4 C9.15 352.86, -1.97 343.01, 0 322.4 M32 354.4 C8.59 355.79, 1.17 342.46, 0 322.4 M0 322.4 C-0.75 221.31, 0.34 119.21, 0 32 M0 322.4 C-0.12 228.9, -0.61 134.42, 0 32 M0 32 C0.37 10.65, 11.53 0.03, 32 0 M0 32 C0.69 10.51, 8.69 -0.66, 32 0" stroke="#1e1e1e" stroke-width="2" fill="none"></path></g><g transform="translate(586.6106853456018 10) rotate(0 105.46875 21.599999999999998)"><text x="0" y="34.762499999999996" font-family="Cascadia, Segoe UI Emoji" font-size="36px" fill="#1e1e1e" text-anchor="start" style="white-space: pre;" direction="ltr" dominant-baseline="alphabetic">Haupt Menu</text></g><g transform="translate(524.2169026022219 100.05083226551523) rotate(0 168.75 21.599999999999994)"><text x="0" y="34.762499999999996" font-family="Cascadia, Segoe UI Emoji" font-size="36px" fill="#1e1e1e" text-anchor="start" style="white-space: pre;" direction="ltr" dominant-baseline="alphabetic">Meine Done-Lists</text></g><g transform="translate(1606.4145147445277 441.34142732041374) rotate(0 137.109375 21.599999999999994)"><text x="0" y="34.762499999999996" font-family="Cascadia, Segoe UI Emoji" font-size="36px" fill="#1e1e1e" text-anchor="start" style="white-space: pre;" direction="ltr" dominant-baseline="alphabetic">My Done-List1</text></g><g transform="translate(1803.5433087607737 536.1347634134991) rotate(0 82.71548223721322 26.061739634125047)"><text x="0" y="20.97155611183498" font-family="Cascadia, Segoe UI Emoji" font-size="21.718116361770853px" fill="#2f9e44" text-anchor="start" style="white-space: pre;" direction="ltr" dominant-baseline="alphabetic">You are doing</text><text x="0" y="47.033295745960004" font-family="Cascadia, Segoe UI Emoji" font-size="21.718116361770853px" fill="#2f9e44" text-anchor="start" style="white-space: pre;" direction="ltr" dominant-baseline="alphabetic">    Great</text></g><g transform="translate(2425.3436394310606 455.8729083587748) rotate(0 166.6239013671875 39.99999999999997)"><text x="0" y="14.016" font-family="Virgil, Segoe UI Emoji" font-size="16px" fill="#2f9e44" text-anchor="start" style="white-space: pre;" direction="ltr" dominant-baseline="alphabetic">Name: Meldung</text><text x="0" y="34.016" font-family="Virgil, Segoe UI Emoji" font-size="16px" fill="#2f9e44" text-anchor="start" style="white-space: pre;" direction="ltr" dominant-baseline="alphabetic">Sobald der Benutzer eine neue Aufgabe</text><text x="0" y="54.016" font-family="Virgil, Segoe UI Emoji" font-size="16px" fill="#2f9e44" text-anchor="start" style="white-space: pre;" direction="ltr" dominant-baseline="alphabetic">die er erledigt hat in seine Done-List tut,</text><text x="0" y="74.016" font-family="Virgil, Segoe UI Emoji" font-size="16px" fill="#2f9e44" text-anchor="start" style="white-space: pre;" direction="ltr" dominant-baseline="alphabetic">bekommt dieser eine Positive Meldung.</text></g><g transform="translate(2075.823883380922 378.28132125985115) rotate(0 124.64793395996094 50)"><text x="0" y="14.016" font-family="Virgil, Segoe UI Emoji" font-size="16px" fill="#1e1e1e" text-anchor="start" style="white-space: pre;" direction="ltr" dominant-baseline="alphabetic">Name: Scroll</text><text x="0" y="34.016" font-family="Virgil, Segoe UI Emoji" font-size="16px" fill="#1e1e1e" text-anchor="start" style="white-space: pre;" direction="ltr" dominant-baseline="alphabetic">Mit diesem Teil kann man wenn</text><text x="0" y="54.016" font-family="Virgil, Segoe UI Emoji" font-size="16px" fill="#1e1e1e" text-anchor="start" style="white-space: pre;" direction="ltr" dominant-baseline="alphabetic">man mehrere Done-List auftäge</text><text x="0" y="74.016" font-family="Virgil, Segoe UI Emoji" font-size="16px" fill="#1e1e1e" text-anchor="start" style="white-space: pre;" direction="ltr" dominant-baseline="alphabetic">fertig hat kann man nach</text><text x="0" y="94.016" font-family="Virgil, Segoe UI Emoji" font-size="16px" fill="#1e1e1e" text-anchor="start" style="white-space: pre;" direction="ltr" dominant-baseline="alphabetic">unten Scrollen</text></g><g transform="translate(2069.3050362318522 584.7672469765453) rotate(0 163.05589294433594 30)"><text x="0" y="14.016" font-family="Virgil, Segoe UI Emoji" font-size="16px" fill="#1e1e1e" text-anchor="start" style="white-space: pre;" direction="ltr" dominant-baseline="alphabetic">Name: Done-List Kasten</text><text x="0" y="34.016" font-family="Virgil, Segoe UI Emoji" font-size="16px" fill="#1e1e1e" text-anchor="start" style="white-space: pre;" direction="ltr" dominant-baseline="alphabetic">Hier werden alle Aufträge aufgelistet die</text><text x="0" y="54.016" font-family="Virgil, Segoe UI Emoji" font-size="16px" fill="#1e1e1e" text-anchor="start" style="white-space: pre;" direction="ltr" dominant-baseline="alphabetic">man schon erledigt hat</text></g><g transform="translate(2019.7431695496691 734.3655051441854) rotate(0 148.45591735839844 40)"><text x="0" y="14.016" font-family="Virgil, Segoe UI Emoji" font-size="16px" fill="#1e1e1e" text-anchor="start" style="white-space: pre;" direction="ltr" dominant-baseline="alphabetic">Name: Aufgabe hinzufügen</text><text x="0" y="34.016" font-family="Virgil, Segoe UI Emoji" font-size="16px" fill="#1e1e1e" text-anchor="start" style="white-space: pre;" direction="ltr" dominant-baseline="alphabetic">mit diesem Button kann man</text><text x="0" y="54.016" font-family="Virgil, Segoe UI Emoji" font-size="16px" fill="#1e1e1e" text-anchor="start" style="white-space: pre;" direction="ltr" dominant-baseline="alphabetic">eine Weitere Aufgabe die man erledigt</text><text x="0" y="74.016" font-family="Virgil, Segoe UI Emoji" font-size="16px" fill="#1e1e1e" text-anchor="start" style="white-space: pre;" direction="ltr" dominant-baseline="alphabetic">hat in seine Done-List einfügen</text></g><g transform="translate(2221.830636830072 653.598938659961) rotate(0 184.15191650390625 30)"><text x="0" y="14.016" font-family="Virgil, Segoe UI Emoji" font-size="16px" fill="#1e1e1e" text-anchor="start" style="white-space: pre;" direction="ltr" dominant-baseline="alphabetic">Name: Zurück zum Menu</text><text x="0" y="34.016" font-family="Virgil, Segoe UI Emoji" font-size="16px" fill="#1e1e1e" text-anchor="start" style="white-space: pre;" direction="ltr" dominant-baseline="alphabetic">Mit dieser Funktion kann man wieder Zurück zu</text><text x="0" y="54.016" font-family="Virgil, Segoe UI Emoji" font-size="16px" fill="#1e1e1e" text-anchor="start" style="white-space: pre;" direction="ltr" dominant-baseline="alphabetic">alle seinen Done-Liste gehen</text></g><g transform="translate(1041.8634653853692 284.9621140627891) rotate(0 167.2079162597656 40)"><text x="0" y="14.016" font-family="Virgil, Segoe UI Emoji" font-size="16px" fill="#1e1e1e" text-anchor="start" style="white-space: pre;" direction="ltr" dominant-baseline="alphabetic">Name: Neue Done-List erstellen</text><text x="0" y="34.016" font-family="Virgil, Segoe UI Emoji" font-size="16px" fill="#1e1e1e" text-anchor="start" style="white-space: pre;" direction="ltr" dominant-baseline="alphabetic">Hier dies Funktion/Button ist dafür da um</text><text x="0" y="54.016" font-family="Virgil, Segoe UI Emoji" font-size="16px" fill="#1e1e1e" text-anchor="start" style="white-space: pre;" direction="ltr" dominant-baseline="alphabetic">eine komplett neue Done-List</text><text x="0" y="74.016" font-family="Virgil, Segoe UI Emoji" font-size="16px" fill="#1e1e1e" text-anchor="start" style="white-space: pre;" direction="ltr" dominant-baseline="alphabetic">zu erstellen</text></g><g transform="translate(585.8678308086282 703.988576833086) rotate(0 139.4559326171875 20)"><text x="0" y="14.016" font-family="Virgil, Segoe UI Emoji" font-size="16px" fill="#1e1e1e" text-anchor="start" style="white-space: pre;" direction="ltr" dominant-baseline="alphabetic">Hier muss man Name der neuen</text><text x="0" y="34.016" font-family="Virgil, Segoe UI Emoji" font-size="16px" fill="#1e1e1e" text-anchor="start" style="white-space: pre;" direction="ltr" dominant-baseline="alphabetic">Done-Liste eingeben die man möchte</text></g><g transform="translate(1047.8686408603935 467.1407174605303) rotate(0 211.03187561035156 10)"><text x="0" y="14.016" font-family="Virgil, Segoe UI Emoji" font-size="16px" fill="#1e1e1e" text-anchor="start" style="white-space: pre;" direction="ltr" dominant-baseline="alphabetic">Wenn man Erstellen Button klickt kommt so ein PopUp</text></g><g transform="translate(1016.9278381091445 557.7392812368248) rotate(0 174.81591796875 20)"><text x="0" y="14.016" font-family="Virgil, Segoe UI Emoji" font-size="16px" fill="#1e1e1e" text-anchor="start" style="white-space: pre;" direction="ltr" dominant-baseline="alphabetic">Wenn man Name eingegeben und Enter</text><text x="0" y="34.016" font-family="Virgil, Segoe UI Emoji" font-size="16px" fill="#1e1e1e" text-anchor="start" style="white-space: pre;" direction="ltr" dominant-baseline="alphabetic">gemacht hat kommt man zu seiner Done-List</text></g><g transform="translate(1004.3099363372999 182.46026007893002) rotate(0 167.20791625976562 40)"><text x="0" y="14.016" font-family="Virgil, Segoe UI Emoji" font-size="16px" fill="#1e1e1e" text-anchor="start" style="white-space: pre;" direction="ltr" dominant-baseline="alphabetic">Name: Eine Done-List Löschen</text><text x="0" y="34.016" font-family="Virgil, Segoe UI Emoji" font-size="16px" fill="#1e1e1e" text-anchor="start" style="white-space: pre;" direction="ltr" dominant-baseline="alphabetic">Hier dies Funktion/Button ist dafür da um</text><text x="0" y="54.016" font-family="Virgil, Segoe UI Emoji" font-size="16px" fill="#1e1e1e" text-anchor="start" style="white-space: pre;" direction="ltr" dominant-baseline="alphabetic">eine schon existierende Done-List zu</text><text x="0" y="74.016" font-family="Virgil, Segoe UI Emoji" font-size="16px" fill="#1e1e1e" text-anchor="start" style="white-space: pre;" direction="ltr" dominant-baseline="alphabetic">Löschen</text></g><g transform="translate(10 145.2074456597901) rotate(0 135.77590942382812 40)"><text x="0" y="14.016" font-family="Virgil, Segoe UI Emoji" font-size="16px" fill="#1e1e1e" text-anchor="start" style="white-space: pre;" direction="ltr" dominant-baseline="alphabetic">Name: Meine Done-Lists</text><text x="0" y="34.016" font-family="Virgil, Segoe UI Emoji" font-size="16px" fill="#1e1e1e" text-anchor="start" style="white-space: pre;" direction="ltr" dominant-baseline="alphabetic">Hier sind die Erstellten Done-Lists</text><text x="0" y="54.016" font-family="Virgil, Segoe UI Emoji" font-size="16px" fill="#1e1e1e" text-anchor="start" style="white-space: pre;" direction="ltr" dominant-baseline="alphabetic">zu sehen die man wenn man drauf</text><text x="0" y="74.016" font-family="Virgil, Segoe UI Emoji" font-size="16px" fill="#1e1e1e" text-anchor="start" style="white-space: pre;" direction="ltr" dominant-baseline="alphabetic">klickt öffnen kann</text></g><g transform="translate(1410.228357530888 853.2705665097894) rotate(0 144.52792358398438 30)"><text x="0" y="14.016" font-family="Virgil, Segoe UI Emoji" font-size="16px" fill="#1e1e1e" text-anchor="start" style="white-space: pre;" direction="ltr" dominant-baseline="alphabetic">Name: Done-List Aufgaben</text><text x="0" y="34.016" font-family="Virgil, Segoe UI Emoji" font-size="16px" fill="#1e1e1e" text-anchor="start" style="white-space: pre;" direction="ltr" dominant-baseline="alphabetic">Hier sind dann die einzelnen Aufträge</text><text x="0" y="54.016" font-family="Virgil, Segoe UI Emoji" font-size="16px" fill="#1e1e1e" text-anchor="start" style="white-space: pre;" direction="ltr" dominant-baseline="alphabetic">die man erledigt hat</text></g><g stroke-linecap="round" transform="translate(1570.8615518060215 504.7646957602317) rotate(0 109.20001220703125 122.79998779296872)"><path d="M32 0 C69.44 -2.16, 105.27 0.85, 186.4 0 M32 0 C85.27 1.17, 137.22 1.35, 186.4 0 M186.4 0 C208.8 1.91, 217.85 11.72, 218.4 32 M186.4 0 C209.11 -2.05, 216.26 10.6, 218.4 32 M218.4 32 C217.79 96.51, 218.78 158.5, 218.4 213.6 M218.4 32 C218.83 88.77, 217.57 144.46, 218.4 213.6 M218.4 213.6 C219.17 233.13, 208.47 246.36, 186.4 245.6 M218.4 213.6 C216.64 233.36, 207.29 247.49, 186.4 245.6 M186.4 245.6 C144.86 246.97, 101.12 245.98, 32 245.6 M186.4 245.6 C143.19 246.15, 98.38 247.2, 32 245.6 M32 245.6 C8.9 244.95, -1.04 234.4, 0 213.6 M32 245.6 C12.55 245.73, 1.52 235.82, 0 213.6 M0 213.6 C-1.18 145.76, 1.15 75.9, 0 32 M0 213.6 C2.22 153.27, 0.86 93.72, 0 32 M0 32 C-0.47 11.32, 9.62 -1.73, 32 0 M0 32 C-2.12 10.29, 12.06 0.46, 32 0" stroke="#1e1e1e" stroke-width="2" fill="none"></path></g><g stroke-linecap="round" transform="translate(493.7630542583257 158.5905249021668) rotate(0 109.20001220703124 122.79998779296875)"><path d="M32 0 C77.85 0.59, 123.89 0.53, 186.4 0 M32 0 C66.72 0.03, 100.93 0.22, 186.4 0 M186.4 0 C207.43 0.33, 217.57 10.9, 218.4 32 M186.4 0 C206.27 0.93, 219.07 10.21, 218.4 32 M218.4 32 C218.15 71.18, 216.74 110.52, 218.4 213.6 M218.4 32 C219.07 101.32, 217.63 170.73, 218.4 213.6 M218.4 213.6 C217.26 236.56, 208.38 244.75, 186.4 245.6 M218.4 213.6 C219.59 234.73, 206.02 246.58, 186.4 245.6 M186.4 245.6 C153.52 245.39, 124.43 245.92, 32 245.6 M186.4 245.6 C146.96 244.74, 106.45 245.61, 32 245.6 M32 245.6 C9.48 243.72, 1.46 235.22, 0 213.6 M32 245.6 C10.83 243.86, 0.01 236.32, 0 213.6 M0 213.6 C2.68 159.22, -0.7 107.02, 0 32 M0 213.6 C-0.44 175.4, -1.26 138.53, 0 32 M0 32 C0.31 11.33, 11.83 0.15, 32 0 M0 32 C0.62 9.3, 11.38 0.05, 32 0" stroke="#1e1e1e" stroke-width="2" fill="none"></path></g><g stroke-linecap="round" transform="translate(1587.6616006341465 527.1647812094504) rotate(0 79.5999755859375 19.99998474121091)"><path d="M10 0 C52.43 -0.82, 93.9 -1.12, 149.2 0 M10 0 C59.78 -1.41, 109.04 -0.3, 149.2 0 M149.2 0 C155.22 1.49, 161.08 5.09, 159.2 10 M149.2 0 C154.16 1.53, 160.54 1.62, 159.2 10 M159.2 10 C160.47 13.48, 158.91 22.14, 159.2 30 M159.2 10 C158.5 14.41, 159.29 19.78, 159.2 30 M159.2 30 C158.11 35.77, 157.2 38.86, 149.2 40 M159.2 30 C158.95 38.78, 157.95 40.7, 149.2 40 M149.2 40 C111.23 41.21, 73.69 41.32, 10 40 M149.2 40 C110.62 40.17, 73.09 40, 10 40 M10 40 C3.65 39.75, 0.15 34.68, 0 30 M10 40 C5.6 38.47, -0.74 36.9, 0 30 M0 30 C-0.93 22.95, -1.67 13.56, 0 10 M0 30 C-0.32 23.92, -0.72 18.75, 0 10 M0 10 C-1.2 1.46, 4.07 1.17, 10 0 M0 10 C0.91 4.38, 4.43 1.56, 10 0" stroke="#1e1e1e" stroke-width="2" fill="none"></path></g><g stroke-linecap="round" transform="translate(510.5631030864507 180.99061035138556) rotate(0 79.5999755859375 19.999984741210938)"><path d="M10 0 C44.36 0, 76.69 -1.43, 149.2 0 M10 0 C56.18 -0.35, 103.03 -0.52, 149.2 0 M149.2 0 C156.19 -0.83, 159.43 2.06, 159.2 10 M149.2 0 C156.8 0.67, 158.74 1.36, 159.2 10 M159.2 10 C159.32 14.22, 159.79 20.86, 159.2 30 M159.2 10 C159.48 15.24, 159.73 21.65, 159.2 30 M159.2 30 C160.83 37.32, 155.01 41.04, 149.2 40 M159.2 30 C158.99 34.96, 156.85 37.73, 149.2 40 M149.2 40 C115.27 38.95, 82.37 37.91, 10 40 M149.2 40 C117.63 40.12, 87.26 39.9, 10 40 M10 40 C1.45 41.46, 0.29 36.81, 0 30 M10 40 C1.6 40.01, 1.39 36.42, 0 30 M0 30 C-1.98 23.38, -1.66 17.84, 0 10 M0 30 C-0.18 22.66, 0.84 16.33, 0 10 M0 10 C0.66 4.49, 3.48 0.54, 10 0 M0 10 C-1.37 4.05, 3.38 0.33, 10 0" stroke="#1e1e1e" stroke-width="2" fill="none"></path></g><g stroke-linecap="round" transform="translate(1588.8616128411777 585.9647690024192) rotate(0 79.5999755859375 19.999984741210938)"><path d="M10 0 C64.11 1.11, 117.62 -1.5, 149.2 0 M10 0 C40.05 -1.18, 69.72 -0.31, 149.2 0 M149.2 0 C156.83 -1.3, 160.99 5.3, 159.2 10 M149.2 0 C157.07 0.65, 159.5 1.47, 159.2 10 M159.2 10 C159.55 19.35, 160.44 23.98, 159.2 30 M159.2 10 C158.61 18.1, 158.77 24.78, 159.2 30 M159.2 30 C158.12 34.81, 157.79 41.68, 149.2 40 M159.2 30 C157.3 34.7, 157.59 41.3, 149.2 40 M149.2 40 C103.3 40.49, 60.51 39.67, 10 40 M149.2 40 C96.28 39.01, 42.93 40.13, 10 40 M10 40 C1.58 41.98, -1.19 35.41, 0 30 M10 40 C2.79 40.28, 1.3 35.84, 0 30 M0 30 C1.33 26.36, -1.52 19.26, 0 10 M0 30 C0.31 24.56, -0.87 17.68, 0 10 M0 10 C1.08 1.78, 2.66 1.19, 10 0 M0 10 C0.13 3.77, 2.42 -1.33, 10 0" stroke="#1e1e1e" stroke-width="2" fill="none"></path></g><g stroke-linecap="round" transform="translate(511.763115293482 239.7905981443543) rotate(0 79.5999755859375 19.999984741210938)"><path d="M10 0 C64.04 0.54, 116.75 -0.66, 149.2 0 M10 0 C47.17 0.38, 84.15 0.84, 149.2 0 M149.2 0 C155.04 0.23, 157.93 4.14, 159.2 10 M149.2 0 C156.54 -0.46, 157.22 1.75, 159.2 10 M159.2 10 C158.9 14.86, 160.92 18.27, 159.2 30 M159.2 10 C158.44 17.66, 158.74 25.33, 159.2 30 M159.2 30 C159.85 35.81, 156.9 39.82, 149.2 40 M159.2 30 C157.49 37.65, 153.6 38.63, 149.2 40 M149.2 40 C105.11 39.7, 59.78 38.15, 10 40 M149.2 40 C111.93 40.1, 74.8 38.61, 10 40 M10 40 C4.79 40.29, 0.14 35.16, 0 30 M10 40 C3.34 41.39, -0.25 35.71, 0 30 M0 30 C-1.65 21.3, -2.02 16.61, 0 10 M0 30 C-0.51 26.01, 0.08 20.92, 0 10 M0 10 C1.16 3.48, 3.87 -1.19, 10 0 M0 10 C0.72 3.38, 3.66 0.38, 10 0" stroke="#1e1e1e" stroke-width="2" fill="none"></path></g><g stroke-linecap="round" transform="translate(1588.4616494622715 641.5648056235129) rotate(0 79.5999755859375 19.999984741210938)"><path d="M10 0 C58.82 -0.38, 108.08 0.29, 149.2 0 M10 0 C39.29 -0.02, 69.31 -1.16, 149.2 0 M149.2 0 C156.87 -0.41, 160.03 1.73, 159.2 10 M149.2 0 C157.27 2.28, 160.71 3.64, 159.2 10 M159.2 10 C160.95 19.03, 159.09 24.07, 159.2 30 M159.2 10 C159.12 15.17, 158.43 22.37, 159.2 30 M159.2 30 C158.12 35.33, 156.99 39.63, 149.2 40 M159.2 30 C158.3 36.09, 154.41 39.67, 149.2 40 M149.2 40 C119.59 39.24, 94.38 41.18, 10 40 M149.2 40 C114.88 40.96, 81.33 41.33, 10 40 M10 40 C4.73 41.95, -1.71 37.83, 0 30 M10 40 C4.12 38.16, -1.25 34.69, 0 30 M0 30 C-1.56 24.15, -0.34 19.42, 0 10 M0 30 C-0.6 25.48, -0.76 19.94, 0 10 M0 10 C-1.74 3.49, 1.42 0.21, 10 0 M0 10 C1.69 1.37, 5.5 2.1, 10 0" stroke="#1e1e1e" stroke-width="2" fill="none"></path></g><g stroke-linecap="round" transform="translate(511.3631519145757 295.39063476544806) rotate(0 79.5999755859375 19.999984741210938)"><path d="M10 0 C52.62 -1.46, 92.13 -0.59, 149.2 0 M10 0 C55.21 -0.18, 101.17 -0.45, 149.2 0 M149.2 0 C156.1 -1.27, 160.01 3.92, 159.2 10 M149.2 0 C155.41 -1.98, 157.61 1.12, 159.2 10 M159.2 10 C160.02 18.62, 159.34 25.26, 159.2 30 M159.2 10 C159.63 16.56, 160.05 24.58, 159.2 30 M159.2 30 C158.35 37.7, 155.69 38.51, 149.2 40 M159.2 30 C160.18 34.4, 154.49 40.42, 149.2 40 M149.2 40 C119.98 39.29, 89.15 39.44, 10 40 M149.2 40 C103.07 38.9, 54.9 40.22, 10 40 M10 40 C3.62 40.14, -1.51 36.68, 0 30 M10 40 C4.72 39.75, -0.96 37.99, 0 30 M0 30 C-1.36 20.25, 1.1 12.85, 0 10 M0 30 C0.77 23.38, 0.39 17.03, 0 10 M0 10 C0.15 3.87, 2.15 0.62, 10 0 M0 10 C0.05 3.66, 3.71 0.56, 10 0" stroke="#1e1e1e" stroke-width="2" fill="none"></path></g><g stroke-linecap="round" transform="translate(1587.2616372552402 694.7648178305442) rotate(0 79.5999755859375 19.999984741210938)"><path d="M10 0 C54.35 -1.58, 104.36 0.94, 149.2 0 M10 0 C62.66 0.3, 113.54 -0.18, 149.2 0 M149.2 0 C156.88 -0.12, 161.07 4.02, 159.2 10 M149.2 0 C154.5 -2.23, 157.08 2.13, 159.2 10 M159.2 10 C159.88 17.67, 160.68 24.82, 159.2 30 M159.2 10 C160.07 15.56, 158.64 21.87, 159.2 30 M159.2 30 C160.37 36.81, 157.7 40.39, 149.2 40 M159.2 30 C157.08 37.79, 157.03 41.56, 149.2 40 M149.2 40 C113.5 39.11, 76.53 41.75, 10 40 M149.2 40 C111.57 39.03, 72.84 40.42, 10 40 M10 40 C4.72 39.23, 1.09 37.55, 0 30 M10 40 C3.39 40.35, 1.5 36.5, 0 30 M0 30 C1.87 24.92, -1.74 17.35, 0 10 M0 30 C0.6 22.61, 0.93 15.27, 0 10 M0 10 C0.07 2.03, 4.9 0.77, 10 0 M0 10 C2.07 5.45, 2.87 1.79, 10 0" stroke="#1e1e1e" stroke-width="2" fill="none"></path></g><g stroke-linecap="round" transform="translate(510.1631397075445 348.5906469724793) rotate(0 79.5999755859375 19.999984741210938)"><path d="M10 0 C63.9 -0.62, 120.21 -0.79, 149.2 0 M10 0 C44.87 0.57, 79.63 0.53, 149.2 0 M149.2 0 C154.6 0.81, 159.78 2.93, 159.2 10 M149.2 0 C153.89 -1.59, 156.99 4.49, 159.2 10 M159.2 10 C160.78 16.43, 160.42 23.76, 159.2 30 M159.2 10 C158.46 17.12, 159.35 22.19, 159.2 30 M159.2 30 C160.24 36.49, 154.38 40.85, 149.2 40 M159.2 30 C156.93 35.29, 156.28 37.94, 149.2 40 M149.2 40 C109.99 38.52, 71.78 40.74, 10 40 M149.2 40 C111.38 39.83, 75.48 40.91, 10 40 M10 40 C3.48 38.49, 0.01 37.88, 0 30 M10 40 C3.08 39.04, 1.33 38.88, 0 30 M0 30 C-1.68 26.78, -1.15 22.51, 0 10 M0 30 C0.24 24.95, 0.67 19.32, 0 10 M0 10 C0.54 2.15, 3.96 0.04, 10 0 M0 10 C0.33 3.71, 3.9 2.21, 10 0" stroke="#1e1e1e" stroke-width="2" fill="none"></path></g><g stroke-linecap="round" transform="translate(1764.4615884271152 512.7647567953879) rotate(0 4.79998779296875 115.20001220703122)"><path d="M2.4 0 C4.02 0.01, 5.8 -0.11, 7.2 0 M2.4 0 C3.34 0.1, 4.49 0.07, 7.2 0 M7.2 0 C9.17 -0.34, 9.91 0.54, 9.6 2.4 M7.2 0 C7.97 0.94, 8.82 0.8, 9.6 2.4 M9.6 2.4 C9.26 72.78, 9.91 141.99, 9.6 228 M9.6 2.4 C9.55 73.31, 9.66 145.41, 9.6 228 M9.6 228 C8.6 230.5, 9.15 229.53, 7.2 230.4 M9.6 228 C10.61 229.36, 8.9 229.84, 7.2 230.4 M7.2 230.4 C5.61 230.48, 3.78 230.62, 2.4 230.4 M7.2 230.4 C5.61 230.4, 4.18 230.44, 2.4 230.4 M2.4 230.4 C1.44 230.17, 0.72 230.25, 0 228 M2.4 230.4 C0.83 229.44, 0.82 228.75, 0 228 M0 228 C0.26 167.94, 0.23 108.74, 0 2.4 M0 228 C0.81 171.14, 0.8 113.28, 0 2.4 M0 2.4 C0.27 0.26, 1.4 0.49, 2.4 0 M0 2.4 C-0.93 0.86, 0.8 -0.89, 2.4 0" stroke="#1e1e1e" stroke-width="2" fill="none"></path></g><g stroke-linecap="round" transform="translate(1765.6616006341465 513.9647079672629) rotate(0 4.79998779296875 24.40002441406253)"><path d="M2.4 0 C4.35 0.5, 5.06 0.5, 7.2 0 C11.3 -2.5, 11.63 -1.13, 9.6 2.4 C9.14 16.71, 12.15 33.27, 9.6 46.4 C11.27 47.81, 9.58 50.71, 7.2 48.8 C5.23 48.75, 4.39 48.46, 2.4 48.8 C2.78 48.8, -1.42 48.65, 0 46.4 C2.11 31.35, -1.86 17.97, 0 2.4 C1.1 3.16, -0.83 0.56, 2.4 0" stroke="none" stroke-width="0" fill="#1e1e1e"></path><path d="M2.4 0 C4.13 -0.13, 5.73 0.11, 7.2 0 M2.4 0 C3.72 0.09, 4.9 -0.07, 7.2 0 M7.2 0 C8.77 0.47, 10.52 0.34, 9.6 2.4 M7.2 0 C9.34 0.7, 8.7 -0.05, 9.6 2.4 M9.6 2.4 C8.65 12.14, 8.71 22.72, 9.6 46.4 M9.6 2.4 C9.67 14.47, 9.42 27.39, 9.6 46.4 M9.6 46.4 C10.57 47.1, 9.39 48.76, 7.2 48.8 M9.6 46.4 C9.13 49.03, 8.17 47.82, 7.2 48.8 M7.2 48.8 C5.46 48.84, 3.83 48.91, 2.4 48.8 M7.2 48.8 C5.28 48.76, 3.45 48.73, 2.4 48.8 M2.4 48.8 C0.35 48.91, 0.64 47.64, 0 46.4 M2.4 48.8 C1.65 47.98, 0.08 47, 0 46.4 M0 46.4 C0.63 36.89, -0.28 28.53, 0 2.4 M0 46.4 C0.64 37.36, -0.12 27.95, 0 2.4 M0 2.4 C-0.17 -0.13, 1.33 -0.95, 2.4 0 M0 2.4 C0.82 1.07, -0.21 0.79, 2.4 0" stroke="#1e1e1e" stroke-width="2" fill="none"></path></g><g stroke-linecap="round"><g transform="translate(1774.7568871411077 546.1291310724841) rotate(0 139.49089151757602 -56.08436034402058)"><path d="M0.77 0.58 C47.41 -18.08, 233.12 -93.88, 279.52 -112.68 M-0.29 -0.15 C46.28 -18.6, 232.39 -92.95, 278.86 -111.41" stroke="#1e1e1e" stroke-width="2" fill="none"></path></g></g><mask></mask><g stroke-linecap="round"><g transform="translate(1789.2369129066878 615.6854025060284) rotate(0 125.34549688961704 -0.3941474347804501)"><path d="M-0.34 0.63 C41.5 0.35, 208.56 -0.54, 250.25 -0.65 M1.69 -0.09 C43.4 0.36, 207.31 1.27, 249.06 0.95" stroke="#1e1e1e" stroke-width="2" fill="none"></path></g></g><mask></mask><g transform="translate(1633.9087471015382 528.5468584370134) rotate(0 32.8125 16.799999999999983)"><text x="0" y="27.0375" font-family="Cascadia, Segoe UI Emoji" font-size="28px" fill="#1e1e1e" text-anchor="start" style="white-space: pre;" direction="ltr" dominant-baseline="alphabetic">Code</text></g><g transform="translate(532.8088399905529 187.1726875789485) rotate(0 58.59375 12)"><text x="0" y="19.3125" font-family="Cascadia, Segoe UI Emoji" font-size="20px" fill="#1e1e1e" text-anchor="start" style="white-space: pre;" direction="ltr" dominant-baseline="alphabetic">Done-List1</text></g><g transform="translate(529.3080685701552 247.4256924994682) rotate(0 58.59375 12)"><text x="0" y="19.3125" font-family="Cascadia, Segoe UI Emoji" font-size="20px" fill="#1e1e1e" text-anchor="start" style="white-space: pre;" direction="ltr" dominant-baseline="alphabetic">Done-List2</text></g><g transform="translate(531.8076209286429 302.4283783485418) rotate(0 58.59375 12)"><text x="0" y="19.3125" font-family="Cascadia, Segoe UI Emoji" font-size="20px" fill="#1e1e1e" text-anchor="start" style="white-space: pre;" direction="ltr" dominant-baseline="alphabetic">Done-List3</text></g><g transform="translate(531.3069827857508 358.18112612892895) rotate(0 58.59375 12)"><text x="0" y="19.3125" font-family="Cascadia, Segoe UI Emoji" font-size="20px" fill="#1e1e1e" text-anchor="start" style="white-space: pre;" direction="ltr" dominant-baseline="alphabetic">Done-List4</text></g><g transform="translate(1604.8646159992973 591.3155240705812) rotate(0 64.453125 12)"><text x="0" y="19.3125" font-family="Cascadia, Segoe UI Emoji" font-size="20px" fill="#1e1e1e" text-anchor="start" style="white-space: pre;" direction="ltr" dominant-baseline="alphabetic">Story board</text></g><g transform="translate(1621.5579637043857 649.2840194852461) rotate(0 46.875 12)"><text x="0" y="19.3125" font-family="Cascadia, Segoe UI Emoji" font-size="20px" fill="#1e1e1e" text-anchor="start" style="white-space: pre;" direction="ltr" dominant-baseline="alphabetic">Diagramm</text></g><g transform="translate(1630.4424341233548 696.874824440031) rotate(0 32.8125 16.80000000000001)"><text x="0" y="27.0375" font-family="Cascadia, Segoe UI Emoji" font-size="28px" fill="#1e1e1e" text-anchor="start" style="white-space: pre;" direction="ltr" dominant-baseline="alphabetic">Doku</text></g><g stroke-linecap="round" transform="translate(764.8277059031756 315.17628185450553) rotate(0 68.06763967661061 17)"><path d="M8.5 0 C43.58 0.05, 80 -0.21, 127.64 0 M8.5 0 C39.23 0.14, 69.41 -0.18, 127.64 0 M127.64 0 C134.54 0.56, 136.39 1.06, 136.14 8.5 M127.64 0 C135.37 -1.78, 135.85 2.78, 136.14 8.5 M136.14 8.5 C137.68 11.99, 137.47 16.74, 136.14 25.5 M136.14 8.5 C135.35 13.06, 135.98 16.12, 136.14 25.5 M136.14 25.5 C137.66 31.47, 132.5 35.77, 127.64 34 M136.14 25.5 C135.72 32.9, 131.12 32.58, 127.64 34 M127.64 34 C95.01 32.49, 61.26 32.97, 8.5 34 M127.64 34 C101.35 33.42, 77.48 33.32, 8.5 34 M8.5 34 C1.17 32.93, 1.94 31.98, 0 25.5 M8.5 34 C2.67 34.79, -1.03 33.42, 0 25.5 M0 25.5 C-0.73 22.27, 0.61 16.39, 0 8.5 M0 25.5 C-0.67 20.29, -0.93 15.44, 0 8.5 M0 8.5 C1.16 4.82, 3.76 0.41, 8.5 0 M0 8.5 C-0.06 3.32, 2.16 1.43, 8.5 0" stroke="#1e1e1e" stroke-width="2" fill="none"></path></g><g transform="translate(791.8797205797862 320.17628185450553) rotate(0 41.015625 12)"><text x="41.015625" y="19.3125" font-family="Cascadia, Segoe UI Emoji" font-size="20px" fill="#1e1e1e" text-anchor="middle" style="white-space: pre;" direction="ltr" dominant-baseline="alphabetic">Löschen</text></g><g stroke-linecap="round" transform="translate(766.1717752351674 355.8657580214874) rotate(0 68.06763967661061 17)"><path d="M8.5 0 C39.1 -0.43, 72.11 -1.95, 127.64 0 M8.5 0 C37.49 0.74, 66.79 0.11, 127.64 0 M127.64 0 C132.84 0.25, 135.36 1.07, 136.14 8.5 M127.64 0 C131.05 0.88, 135.16 4.85, 136.14 8.5 M136.14 8.5 C135.87 11.02, 137.44 15.33, 136.14 25.5 M136.14 8.5 C135.28 12.79, 135.63 15.11, 136.14 25.5 M136.14 25.5 C137.5 32.69, 132.29 35.59, 127.64 34 M136.14 25.5 C136.24 32.45, 132.74 35.62, 127.64 34 M127.64 34 C93.57 37.11, 65.11 34.49, 8.5 34 M127.64 34 C92.6 33.87, 57.1 32.87, 8.5 34 M8.5 34 C3.82 32.71, 0.21 30.86, 0 25.5 M8.5 34 C4.74 34.41, -0.63 30.92, 0 25.5 M0 25.5 C-0.39 19.78, -1.4 11.55, 0 8.5 M0 25.5 C-0.15 19.92, 0.44 16.52, 0 8.5 M0 8.5 C0.14 1.33, 1.08 0.18, 8.5 0 M0 8.5 C-0.46 4.18, 4.23 0.85, 8.5 0" stroke="#1e1e1e" stroke-width="2" fill="none"></path></g><g transform="translate(781.505039911778 360.8657580214874) rotate(0 52.734375 12)"><text x="52.734375" y="19.3125" font-family="Cascadia, Segoe UI Emoji" font-size="20px" fill="#1e1e1e" text-anchor="middle" style="white-space: pre;" direction="ltr" dominant-baseline="alphabetic">Erstellen</text></g><g stroke-linecap="round" transform="translate(1827.5654479141674 707.0432798236945) rotate(0 68.06763967661061 24.5)"><path d="M12.25 0 C49.14 0.01, 88.95 -1.42, 123.89 0 M12.25 0 C54.23 0.8, 97.59 0.48, 123.89 0 M123.89 0 C133.77 1.53, 137.74 2.4, 136.14 12.25 M123.89 0 C133.63 -0.24, 138.06 2.24, 136.14 12.25 M136.14 12.25 C137.81 18.68, 134.53 30.69, 136.14 36.75 M136.14 12.25 C135.35 22.13, 136.66 30.24, 136.14 36.75 M136.14 36.75 C134.9 43.41, 132.18 47.08, 123.89 49 M136.14 36.75 C137.53 44.89, 133.25 49.17, 123.89 49 M123.89 49 C91.82 48.53, 60.75 47.09, 12.25 49 M123.89 49 C88.02 50.39, 54.67 50.47, 12.25 49 M12.25 49 C2.15 48.22, -1.27 45.1, 0 36.75 M12.25 49 C5.49 46.81, 1.59 45, 0 36.75 M0 36.75 C-1.28 32.27, 1.31 22.94, 0 12.25 M0 36.75 C-0.36 28.34, -0.16 19.83, 0 12.25 M0 12.25 C1.96 5.98, 3.75 1.35, 12.25 0 M0 12.25 C2.02 5.52, 3.17 -0.56, 12.25 0" stroke="#1e1e1e" stroke-width="2" fill="none"></path></g><g transform="translate(1853.4455875907781 712.3432798236945) rotate(0 42.1875 19.19999999999999)"><text x="42.1875" y="15.45" font-family="Cascadia, Segoe UI Emoji" font-size="16px" fill="#1e1e1e" text-anchor="middle" style="white-space: pre;" direction="ltr" dominant-baseline="alphabetic">Aufgabe </text><text x="42.1875" y="34.65" font-family="Cascadia, Segoe UI Emoji" font-size="16px" fill="#1e1e1e" text-anchor="middle" style="white-space: pre;" direction="ltr" dominant-baseline="alphabetic">erstellen</text></g><g stroke-linecap="round" transform="translate(1828.066603399205 642.1080135009861) rotate(0 68.06763967661061 24.5)"><path d="M12.25 0 C48.87 -0.83, 88.47 -2.34, 123.89 0 M12.25 0 C48.56 -1.53, 82.39 -0.46, 123.89 0 M123.89 0 C131.86 0.48, 135.74 3.26, 136.14 12.25 M123.89 0 C131.53 0.47, 136.92 3.34, 136.14 12.25 M136.14 12.25 C137.34 20.83, 136.84 26.87, 136.14 36.75 M136.14 12.25 C135.57 21.91, 136.02 32.17, 136.14 36.75 M136.14 36.75 C135.17 44.25, 130.33 48.76, 123.89 49 M136.14 36.75 C137.27 46.14, 133.34 49.64, 123.89 49 M123.89 49 C93.04 49.86, 58.7 50.75, 12.25 49 M123.89 49 C98.21 49.33, 73.07 49.27, 12.25 49 M12.25 49 C5.92 48.87, 1.51 46.6, 0 36.75 M12.25 49 C4.22 46.98, 0.15 44.24, 0 36.75 M0 36.75 C0.55 30.87, 1.54 25.52, 0 12.25 M0 36.75 C1.14 29.11, -0.43 21.46, 0 12.25 M0 12.25 C0.73 5.46, 2.79 1.9, 12.25 0 M0 12.25 C-1.06 4.93, 4.66 -1.58, 12.25 0" stroke="#1e1e1e" stroke-width="2" fill="none"></path></g><g transform="translate(1849.2592430758157 647.408013500986) rotate(0 46.875 19.19999999999999)"><text x="46.875" y="15.45" font-family="Cascadia, Segoe UI Emoji" font-size="16px" fill="#1e1e1e" text-anchor="middle" style="white-space: pre;" direction="ltr" dominant-baseline="alphabetic">Zurück zu </text><text x="46.875" y="34.65" font-family="Cascadia, Segoe UI Emoji" font-size="16px" fill="#1e1e1e" text-anchor="middle" style="white-space: pre;" direction="ltr" dominant-baseline="alphabetic">Menu</text></g><g stroke-linecap="round"><g transform="translate(897.5005819913847 369.605909849641) rotate(0 62.19597759273648 -8.012971385740371)"><path d="M0.82 0.34 C21.48 -2.5, 102.87 -13.19, 123.29 -16.08 M-0.21 -0.52 C20.86 -3.25, 104.44 -11.96, 125.42 -14.57" stroke="#1e1e1e" stroke-width="2" fill="none"></path></g></g><mask></mask><g stroke-linecap="round"><g transform="translate(889.869175126583 330.68574648375517) rotate(0 52.27512537928877 -65.63010194844519)"><path d="M-1.11 -0.46 C16.41 -22.48, 87.66 -110.01, 105.18 -131.85 M0.51 -1.75 C17.92 -23.63, 87.49 -109.2, 104.57 -130.62" stroke="#1e1e1e" stroke-width="2" fill="none"></path></g></g><mask></mask><g stroke-linecap="round" transform="translate(607.0047565747293 589.4043630479648) rotate(0 140.41788340120036 28.236211222067652)"><path d="M14.12 0 C82.15 1.28, 147.57 2.2, 266.72 0 M14.12 0 C90.46 0.74, 167.01 1.26, 266.72 0 M266.72 0 C277.67 1.42, 282.13 6.57, 280.84 14.12 M266.72 0 C276.61 -2.25, 279.73 2.79, 280.84 14.12 M280.84 14.12 C280.22 22.4, 281.98 28.93, 280.84 42.35 M280.84 14.12 C280.74 19.91, 279.81 26.31, 280.84 42.35 M280.84 42.35 C279.34 50.76, 275.03 58.31, 266.72 56.47 M280.84 42.35 C280.63 52.36, 277.47 55.97, 266.72 56.47 M266.72 56.47 C194.58 56.73, 120.19 55.12, 14.12 56.47 M266.72 56.47 C177.72 58.81, 88.79 58.4, 14.12 56.47 M14.12 56.47 C5.27 55.97, 1.68 52.76, 0 42.35 M14.12 56.47 C6.9 54.52, -0.81 51.48, 0 42.35 M0 42.35 C-0.62 34.52, -0.46 27.04, 0 14.12 M0 42.35 C-0.06 33.49, -0.25 23.47, 0 14.12 M0 14.12 C-1.03 6.23, 3.92 0.04, 14.12 0 M0 14.12 C0.8 2.55, 7 -0.57, 14.12 0" stroke="#1e1e1e" stroke-width="2" fill="none"></path></g><g transform="translate(622.0767443766031 608.1012865775235) rotate(0 30.75445606814123 12.598525273670418)"><text x="0" y="20.27575161231332" font-family="Cascadia, Segoe UI Emoji" font-size="20.997542122784026px" fill="#1e1e1e" text-anchor="start" style="white-space: pre;" direction="ltr" dominant-baseline="alphabetic">Name:</text></g><g stroke-linecap="round" transform="translate(700.2862673926796 603.7165924330925) rotate(0 85.54962819766718 14.76750713761254)"><path d="M7.38 0 C53.66 -2.1, 95.89 -1.01, 163.72 0 M7.38 0 C56.7 -1.58, 104.2 -0.76, 163.72 0 M163.72 0 C169.17 -1.13, 172.31 4.34, 171.1 7.38 M163.72 0 C167.23 -0.52, 171.45 4.18, 171.1 7.38 M171.1 7.38 C171.02 11.69, 170.33 17.82, 171.1 22.15 M171.1 7.38 C170.78 10, 171.38 14.37, 171.1 22.15 M171.1 22.15 C170.81 27.72, 167.43 28.92, 163.72 29.54 M171.1 22.15 C172.74 28.53, 169.33 30.77, 163.72 29.54 M163.72 29.54 C121.72 27.95, 79.33 30.68, 7.38 29.54 M163.72 29.54 C131.25 28.01, 100.65 29.74, 7.38 29.54 M7.38 29.54 C2.38 29.18, -1.83 25.55, 0 22.15 M7.38 29.54 C4.5 31.25, 1.46 25.92, 0 22.15 M0 22.15 C0.75 16.69, 0.61 13.08, 0 7.38 M0 22.15 C-0.28 17.94, 0.63 12.65, 0 7.38 M0 7.38 C0.26 0.52, 2.78 -1.96, 7.38 0 M0 7.38 C-1.65 4.66, 0.93 2.18, 7.38 0" stroke="#1e1e1e" stroke-width="2" fill="none"></path></g><g stroke-linecap="round"><g transform="translate(760.3518098137431 627.8772147299467) rotate(0 -45.171726908547726 41.88649787400146)"><path d="M0.09 0.08 C-14.87 13.88, -75.74 69.61, -90.63 83.6 M-1.32 -0.92 C-16.38 13, -77.04 70.65, -91.72 85.05" stroke="#1e1e1e" stroke-width="2" fill="none"></path></g></g><mask></mask><g stroke-linecap="round"><g transform="translate(285.9376503782114 184.6474752313118) rotate(0 115.88192178375203 7.500440488527985)"><path d="M1.19 -0.26 C39.86 2.34, 193.3 11.97, 231.6 14.68 M0.35 -1.44 C38.88 1.41, 191.71 13.44, 230.57 16.05" stroke="#1e1e1e" stroke-width="2" fill="none"></path></g></g><mask></mask><g stroke-linecap="round"><g transform="translate(287.4377742408384 185.3974942447196) rotate(0 117.75700508219302 40.12739774328438)"><path d="M-0.19 -0.58 C39.06 13.1, 196.56 67.88, 236 81.38 M-1.75 1.73 C37.35 15.17, 195.65 66.5, 235.31 79.84" stroke="#1e1e1e" stroke-width="2" fill="none"></path></g></g><mask></mask><g stroke-linecap="round"><g transform="translate(283.6875504200823 191.397846635542) rotate(0 117.38198842250478 66.75399545423409)"><path d="M-0.79 -1.11 C38.42 21.05, 195.37 111.09, 234.46 133.67 M1 0.92 C40.1 23.25, 194.17 113.36, 233.35 135.29" stroke="#1e1e1e" stroke-width="2" fill="none"></path></g></g><mask></mask><g stroke-linecap="round"><g transform="translate(280.68735991870244 196.64816570698804) rotate(0 121.5072575148863 89.25532407280235)"><path d="M1.03 -0.56 C41.8 28.96, 203.78 147.73, 243.94 177.68 M0.11 1.75 C40.87 31.36, 202.77 149.55, 243.48 178.78" stroke="#1e1e1e" stroke-width="2" fill="none"></path></g></g><mask></mask><g stroke-linecap="round"><g transform="translate(1949.014772607549 725.1079243167273) rotate(0 33.503567759564476 9.30655054450932)"><path d="M-1.18 -0.04 C9.88 3.19, 56.06 16.45, 67.4 19.51 M0.41 -1.11 C11.25 1.78, 55.73 14.43, 66.65 17.85" stroke="#1e1e1e" stroke-width="2" fill="none"></path></g></g><mask></mask><g stroke-linecap="round"><g transform="translate(825.6025503108118 468.77530801580923) rotate(0 104.2869137420468 13.814521739100826)"><path d="M-0.35 -0.88 C11.39 4.02, 34.83 26.57, 69.63 28.57 C104.43 30.56, 185.24 14.05, 208.47 11.08 M1.67 1.27 C13.3 5.92, 34.21 25.59, 68.54 26.94 C102.87 28.29, 184.16 12.4, 207.65 9.35" stroke="#1e1e1e" stroke-width="2" fill="none"></path></g><g transform="translate(825.6025503108118 468.77530801580923) rotate(0 104.2869137420468 13.814521739100826)"><path d="M185.79 21.49 C189.48 18.27, 197.59 15.74, 207.65 9.35 M185.79 21.49 C193.81 15.92, 202.91 11.26, 207.65 9.35" stroke="#1e1e1e" stroke-width="2" fill="none"></path></g><g transform="translate(825.6025503108118 468.77530801580923) rotate(0 104.2869137420468 13.814521739100826)"><path d="M183.1 4.6 C187.3 5.31, 196.03 6.7, 207.65 9.35 M183.1 4.6 C192.25 5.71, 202.41 7.76, 207.65 9.35" stroke="#1e1e1e" stroke-width="2" fill="none"></path></g></g><mask></mask><g stroke-linecap="round"><g transform="translate(845.8008655924218 385.94335288470575) rotate(0 -30.37673248003199 104.93795394603066)"><path d="M1 0.86 C-9.08 35.84, -49.8 175.92, -60.25 210.64 M0.07 0.27 C-10.15 34.84, -51.04 173.93, -60.93 208.92" stroke="#1e1e1e" stroke-width="2" fill="none"></path></g></g><mask></mask><g stroke-linecap="round"><g transform="translate(1978.9876385993157 552.0826265028466) rotate(0 218.74424156294992 -33.32431996049411)"><path d="M0.81 0.17 C73.59 -11.02, 364.49 -54.93, 437.32 -66.18 M-0.22 -0.78 C72.32 -12.42, 363.38 -57.12, 436.29 -68.05" stroke="#2f9e44" stroke-width="2" fill="none"></path></g></g><mask></mask><g stroke-linecap="round"><g transform="translate(1953.753181952662 662.13760125144) rotate(0 120.8462139407502 15.303676046869327)"><path d="M-0.79 0.94 C39.81 6.06, 202.17 26.57, 242.48 31.64 M0.99 0.39 C41.61 5.11, 202.11 25.22, 241.94 30.07" stroke="#1e1e1e" stroke-width="2" fill="none"></path></g></g><mask></mask><g stroke-linecap="round"><g transform="translate(1682.8028096843057 729.2638355151462) rotate(0 -28.218600701373475 59.430103559151576)"><path d="M-0.75 0.83 C-10.38 20.49, -48.02 98.92, -57.46 118.54 M1.06 0.21 C-8.23 20.01, -45.95 100, -55.29 119.91" stroke="#1e1e1e" stroke-width="2" fill="none"></path></g></g><mask></mask><g stroke-linecap="round"><g transform="translate(1660.5700459155728 674.5368266362514) rotate(0 -29.928858464888833 86.36604355772016)"><path d="M-0.31 1.08 C-10.15 29.96, -50.36 143.26, -60.19 172.07 M1.73 0.61 C-8.19 29.73, -51.06 144.66, -61.31 173.26" stroke="#1e1e1e" stroke-width="2" fill="none"></path></g></g><mask></mask><g stroke-linecap="round"><g transform="translate(1645.1779870025866 619.8098503771882) rotate(0 -35.48701678724058 109.45395251812647)"><path d="M-0.74 -0.66 C-12.25 35.64, -58.17 181.34, -69.86 217.78 M1.07 1.61 C-10.43 38.01, -58.11 182.52, -70.22 218.73" stroke="#1e1e1e" stroke-width="2" fill="none"></path></g></g><mask></mask><g stroke-linecap="round"><g transform="translate(1608.4083258224568 553.9664269940959) rotate(0 -30.35637397602045 141.09306874653043)"><path d="M-0.13 -0.99 C-10.32 46.21, -50.14 235.69, -60.11 282.82 M-1.66 1.1 C-12.04 47.98, -50.97 234.07, -60.73 281.03" stroke="#1e1e1e" stroke-width="2" fill="none"></path></g></g><mask></mask><g stroke-linecap="round"><g transform="translate(873.6840626558305 631.5376517681091) rotate(0 325.61212515838747 1.0926830351759804)"><path d="M-1.05 0.37 C107.35 0.56, 541.84 1.6, 650.59 1.86 M0.6 -0.49 C109.38 -0.18, 544.6 2.63, 652.97 3.22" stroke="#1e1e1e" stroke-width="2" fill="none"></path></g></g><mask></mask><g stroke-linecap="round"><g transform="translate(1096.1767291413546 632.6939167512828) rotate(0 12.264620264653331 -15.330765583778373)"><path d="M-0.26 0.11 C3.78 -5.04, 21.17 -25.27, 25.27 -30.4 M1.8 -0.87 C5.66 -6.45, 21.1 -27.64, 24.71 -32.39" stroke="#1e1e1e" stroke-width="2" fill="none"></path></g><g transform="translate(1096.1767291413546 632.6939167512828) rotate(0 12.264620264653331 -15.330765583778373)"><path d="M19.13 -13.57 C21.4 -19.63, 23.8 -28.43, 24.71 -32.39 M19.13 -13.57 C20.4 -18.22, 22.7 -24.44, 24.71 -32.39" stroke="#1e1e1e" stroke-width="2" fill="none"></path></g><g transform="translate(1096.1767291413546 632.6939167512828) rotate(0 12.264620264653331 -15.330765583778373)"><path d="M8.34 -21.56 C14.82 -24.5, 21.4 -30.22, 24.71 -32.39 M8.34 -21.56 C12.81 -23.75, 18.31 -27.59, 24.71 -32.39" stroke="#1e1e1e" stroke-width="2" fill="none"></path></g></g><mask></mask></svg>